<!-- Generated by readme-aura https://github.com/collectioneur/readme-aura -->
<svg width="860" height="140" viewBox="0 0 860 140" xmlns="http://www.w3.org/2000/svg"><defs><clipPath id="satori_bc-id"><path x="0" y="0" width="860" height="140" d="M16,0 h828 a16,16 0 0 1 16,16 v108 a16,16 0 0 1 -16,16 h-828 a16,16 0 0 1 -16,-16 v-108 a16,16 0 0 1 16,-16"/></clipPath></defs><clipPath id="satori_cp-id"><path x="0" y="0" width="860" height="140" d="M16,0 h828 a16,16 0 0 1 16,16 v108 a16,16 0 0 1 -16,16 h-828 a16,16 0 0 1 -16,-16 v-108 a16,16 0 0 1 16,-16"/></clipPath><mask id="satori_om-id"><rect x="1" y="1" width="858" height="138" fill="#fff"/><path width="860" height="140" fill="none" stroke="#000" stroke-width="2" d="M4.686,4.686 A16,16 0 0 1 16,0 h828 a16,16 0 0 1 16,16 v108 a16,16 0 0 1 -16,16 h-828 a16,16 0 0 1 -16,-16 v-108 A16,16 0 0 1 4.686,4.686"/></mask><path x="0" y="0" width="860" height="140" fill="#08080c" d="M16,0 h828 a16,16 0 0 1 16,16 v108 a16,16 0 0 1 -16,16 h-828 a16,16 0 0 1 -16,-16 v-108 a16,16 0 0 1 16,-16"/><path width="860" height="140" clip-path="url(#satori_bc-id)" fill="none" stroke="rgba(110,80,220,0.18)" stroke-width="2" d="M4.686,4.686 A16,16 0 0 1 16,0 h828 a16,16 0 0 1 16,16 v108 a16,16 0 0 1 -16,16 h-828 a16,16 0 0 1 -16,-16 v-108 A16,16 0 0 1 4.686,4.686"/><clipPath id="satori_cp-id-0" clip-path="url(#satori_cp-id)"><rect x="1" y="1" width="860" height="140"/></clipPath><mask id="satori_om-id-0"><rect x="1" y="1" width="860" height="140" fill="#fff" mask="url(#satori_om-id)"/></mask><svg x="1" y="1" width="860" height="140" preserveAspectRatio="none" clip-path="url(#satori_cp-id-0)" mask="url(#satori_om-id-0)"><defs><radialGradient id="g1" cx="50%" cy="50%" r="50%"><stop offset="0%" stop-color="rgba(110,20,210,0.65)"></stop><stop offset="45%" stop-color="rgba(80,15,170,0.28)"></stop><stop offset="70%" stop-color="rgba(80,15,170,0)"></stop></radialGradient><radialGradient id="g2" cx="50%" cy="50%" r="50%"><stop offset="0%" stop-color="rgba(40,70,255,0.55)"></stop><stop offset="45%" stop-color="rgba(20,50,200,0.22)"></stop><stop offset="70%" stop-color="rgba(20,50,200,0)"></stop></radialGradient><radialGradient id="g3" cx="50%" cy="50%" r="50%"><stop offset="0%" stop-color="rgba(0,140,255,0.42)"></stop><stop offset="70%" stop-color="rgba(0,140,255,0)"></stop></radialGradient><radialGradient id="g4" cx="50%" cy="50%" r="50%"><stop offset="0%" stop-color="rgba(0,195,235,0.30)"></stop><stop offset="70%" stop-color="rgba(0,195,235,0)"></stop></radialGradient><radialGradient id="g5" cx="50%" cy="50%" r="50%"><stop offset="0%" stop-color="rgba(100,30,210,0.40)"></stop><stop offset="70%" stop-color="rgba(100,30,210,0)"></stop></radialGradient></defs><ellipse id="glow-1" cx="710" cy="150" rx="210" ry="150" fill="url(#g1)"></ellipse><ellipse id="glow-2" cx="550" cy="140" rx="190" ry="140" fill="url(#g2)"></ellipse><ellipse id="glow-3" cx="400" cy="130" rx="170" ry="130" fill="url(#g3)"></ellipse><ellipse id="glow-4" cx="250" cy="140" rx="150" ry="120" fill="url(#g4)"></ellipse><ellipse id="glow-5" cx="100" cy="150" rx="130" ry="110" fill="url(#g5)"></ellipse><style>

         @keyframes float-slow {
           0%, 100% { transform: translateX(0px); opacity: 0.8; }
           50% { transform: translateX(350px); opacity: 1.2; }
         }
         @keyframes float-medium {
           0%, 100% { transform: translateX(0px); opacity: 0.7; }
           50% { transform: translateX(-250px); opacity: 1.1; }
         }
         @keyframes float-fast {
           0%, 100% { transform: translateX(0px); opacity: 0.9; }
           50% { transform: translateX(200px); opacity: 0.6; }
         }
         @keyframes float-diagonal {
           0%, 100% { transform: translate(0px, 0px); opacity: 0.75; }
           50% { transform: translate(120px, 30px); opacity: 1.0; }
         }
         @keyframes float-wave {
           0%, 100% { transform: translateX(0px); opacity: 0.65; }
           33% { transform: translateX(-160px); opacity: 0.9; }
           66% { transform: translateX(80px); opacity: 1.0; }
         }
         @keyframes float-pulse {
           0%, 100% { transform: scale(1); opacity: 0.8; }
           50% { transform: scale(1.3); opacity: 0.4; }
         }
    
     @keyframes float-ember-1 {
       0% { transform: translate(0, 0) scale(1); opacity: 0; }
       20% { opacity: 1; }
       80% { opacity: 1; }
       100% { transform: translate(-20px, -60px) scale(0.5); opacity: 0; }
     }
     @keyframes float-ember-2 {
       0% { transform: translate(0, 0) scale(1); opacity: 0; }
       20% { opacity: 1; }
       80% { opacity: 1; }
       100% { transform: translate(20px, -80px) scale(0.6); opacity: 0; }
     }
     @keyframes float-ember-3 {
       0% { transform: translate(0, 0) scale(1); opacity: 0; }
       20% { opacity: 0.8; }
       80% { opacity: 0.8; }
       100% { transform: translate(-10px, -50px) scale(0.4); opacity: 0; }
     }
     #ember-1 { animation: float-ember-1 3s ease-in infinite; }
     #ember-2 { animation: float-ember-2 4s ease-in infinite; animation-delay: 1s; }
     #ember-3 { animation: float-ember-3 2.5s ease-in infinite; animation-delay: 2s; }
     #ember-4 { animation: float-ember-1 3.5s ease-in infinite; animation-delay: 0.5s; }
     #ember-5 { animation: float-ember-2 4.5s ease-in infinite; animation-delay: 1.5s; }
     #glow-1 { animation: float-slow 8s ease-in-out infinite; }
         #glow-2 { animation: float-medium 12s ease-in-out infinite; }
         #glow-3 { animation: float-fast 9s ease-in-out infinite; }
         #glow-4 { animation: float-diagonal 10s ease-in-out infinite; }
         #glow-5 { animation: float-wave 14s ease-in-out infinite; }
       
</style>
</svg><mask id="satori_om-id-0-0"><rect x="1" y="1" width="0" height="140" fill="#fff" mask="url(#satori_om-id)"/></mask><mask id="satori_om-id-0-0-0"><rect x="1" y="1" width="0" height="140" fill="#fff" mask="url(#satori_om-id)"/></mask><mask id="satori_om-id-0-0-0-0"><rect x="1" y="1" width="0" height="140" fill="#fff" mask="url(#satori_om-id)"/></mask><mask id="satori_om-id-0-0-0-1"><rect x="1" y="1" width="0" height="140" fill="#fff" mask="url(#satori_om-id)"/></mask><mask id="satori_om-id-0-0-0-2"><rect x="1" y="1" width="0" height="140" fill="#fff" mask="url(#satori_om-id)"/></mask><mask id="satori_om-id-0-0-1"><rect x="1" y="1" width="0" height="140" fill="#fff" mask="url(#satori_om-id)"/></mask><mask id="satori_om-id-0-0-1-0"><rect x="1" y="1" width="0" height="140" fill="#fff" mask="url(#satori_om-id)"/></mask><mask id="satori_om-id-0-0-1-1"><rect x="1" y="1" width="0" height="140" fill="#fff" mask="url(#satori_om-id)"/></mask><mask id="satori_om-id-0-0-1-2"><rect x="1" y="1" width="0" height="140" fill="#fff" mask="url(#satori_om-id)"/></mask><mask id="satori_om-id-0-0-2"><rect x="1" y="1" width="0" height="140" fill="#fff" mask="url(#satori_om-id)"/></mask><mask id="satori_om-id-0-0-2-0"><rect x="1" y="1" width="0" height="140" fill="#fff" mask="url(#satori_om-id)"/></mask><mask id="satori_om-id-0-0-2-1"><rect x="1" y="1" width="0" height="140" fill="#fff" mask="url(#satori_om-id)"/></mask><mask id="satori_om-id-0-0-3"><rect x="1" y="1" width="0" height="140" fill="#fff" mask="url(#satori_om-id)"/></mask><mask id="satori_om-id-0-0-3-0"><rect x="1" y="1" width="0" height="140" fill="#fff" mask="url(#satori_om-id)"/></mask><mask id="satori_om-id-0-0-3-1"><rect x="1" y="1" width="0" height="140" fill="#fff" mask="url(#satori_om-id)"/></mask><mask id="satori_om-id-0-0-4"><rect x="1" y="1" width="0" height="140" fill="#fff" mask="url(#satori_om-id)"/></mask><mask id="satori_om-id-0-0-4-0"><rect x="1" y="1" width="0" height="140" fill="#fff" mask="url(#satori_om-id)"/></mask><mask id="satori_om-id-0-0-4-1"><rect x="1" y="1" width="0" height="140" fill="#fff" mask="url(#satori_om-id)"/></mask><mask id="satori_om-id-0-1"><rect x="1" y="1" width="0" height="140" fill="#fff" mask="url(#satori_om-id)"/></mask><mask id="satori_om-id-0-2"><rect x="1" y="1" width="0" height="140" fill="#fff" mask="url(#satori_om-id)"/></mask><mask id="satori_om-id-0-3"><rect x="1" y="1" width="0" height="140" fill="#fff" mask="url(#satori_om-id)"/></mask><mask id="satori_om-id-0-4"><rect x="1" y="1" width="0" height="140" fill="#fff" mask="url(#satori_om-id)"/></mask><mask id="satori_om-id-0-5"><rect x="1" y="1" width="0" height="140" fill="#fff" mask="url(#satori_om-id)"/></mask><defs><clipPath id="satori_bc-id-1" clip-path="url(#satori_cp-id)"><rect x="1" y="29" width="263" height="82"/></clipPath></defs><mask id="satori_om-id-1"><rect x="1" y="29" width="262" height="82" fill="#fff" mask="url(#satori_om-id)"/><path width="263" height="82" fill="none" stroke="#000" stroke-width="2" d="M264,29 A0,0 0 0 1 264,29 v82 A0,0 0 0 1 264,111"/></mask><path width="263" height="82" clip-path="url(#satori_bc-id-1)" fill="none" stroke="rgba(255,255,255,0.06)" stroke-width="2" d="M264,29 A0,0 0 0 1 264,29 v82 A0,0 0 0 1 264,111"/><mask id="satori_om-id-1-0"><rect x="123" y="45" width="19" height="30" fill="#fff" mask="url(#satori_om-id)"/></mask><g mask="url(#satori_om-id)" clip-path="url(#satori_cp-id)"><path fill="#a78bfa" d="M132.2 71.5L132.2 71.5Q130.0 71.5 128.4 70.6Q126.7 69.7 125.7 68.2Q124.8 66.6 124.8 64.6L124.8 64.6Q124.8 62.8 125.6 61.3Q126.5 59.8 128.0 58.9L128.0 58.9L128.0 60.0Q126.7 59.1 126.0 57.8Q125.4 56.6 125.4 55.1L125.4 55.1Q125.4 53.2 126.2 51.8Q127.1 50.5 128.6 49.7Q130.2 49.0 132.2 49.0L132.2 49.0Q134.2 49.0 135.7 49.7Q137.2 50.5 138.1 51.8Q139.0 53.2 139.0 55.1L139.0 55.1Q139.0 56.6 138.3 57.8Q137.7 59.1 136.4 60.0L136.4 60.0L136.3 58.9Q137.9 59.8 138.7 61.3Q139.6 62.8 139.6 64.6L139.6 64.6Q139.6 66.6 138.6 68.2Q137.7 69.7 136.0 70.6Q134.3 71.5 132.2 71.5ZM132.2 68.0L132.2 68.0Q133.8 68.0 134.8 67.2Q135.8 66.3 135.8 64.6L135.8 64.6Q135.8 62.9 134.8 62.1Q133.8 61.2 132.2 61.2L132.2 61.2Q130.6 61.2 129.6 62.1Q128.6 62.9 128.6 64.6L128.6 64.6Q128.6 66.3 129.6 67.2Q130.6 68.0 132.2 68.0ZM132.2 57.8L132.2 57.8Q133.5 57.8 134.3 57.1Q135.2 56.4 135.2 55.1L135.2 55.1Q135.2 53.7 134.3 53.0Q133.5 52.4 132.2 52.4L132.2 52.4Q130.8 52.4 130.0 53.0Q129.2 53.7 129.2 55.1L129.2 55.1Q129.2 56.4 130.0 57.1Q130.8 57.8 132.2 57.8Z "/></g><mask id="satori_om-id-1-1"><rect x="110" y="80" width="44" height="15" fill="#fff" mask="url(#satori_om-id)"/></mask><g mask="url(#satori_om-id)" clip-path="url(#satori_cp-id)"><path fill="rgba(200,195,225,0.45)" d="M112.1 92L110.8 92L110.8 84.1L114.0 84.1Q114.2 84.1 114.3 84.1Q114.5 84.1 114.7 84.1L114.7 84.1Q115.4 84.2 115.8 84.6Q116.3 84.9 116.5 85.5Q116.7 86.0 116.7 86.7L116.7 86.7Q116.7 87.6 116.2 88.3Q115.7 89.0 114.7 89.2L114.7 89.2L114.1 89.2L112.1 89.2L112.1 92ZM116.8 92L115.3 92L113.8 88.8L115.1 88.5L116.8 92ZM112.1 85.3L112.1 88.0L114.0 88.0Q114.1 88.0 114.2 88.0Q114.4 88.0 114.5 87.9L114.5 87.9Q114.8 87.9 115.0 87.6Q115.2 87.4 115.3 87.2Q115.4 86.9 115.4 86.7L115.4 86.7Q115.4 86.4 115.3 86.1Q115.2 85.9 115.0 85.7Q114.8 85.5 114.5 85.4L114.5 85.4Q114.4 85.3 114.2 85.3Q114.1 85.3 114.0 85.3L114.0 85.3L112.1 85.3ZM124.6 92L119.5 92L119.5 84.1L124.6 84.1L124.6 85.3L120.9 85.3L120.9 87.3L124.0 87.3L124.0 88.5L120.9 88.5L120.9 90.8L124.6 90.8L124.6 92ZM128.8 92L127.5 92L127.5 84.1L130.7 84.1Q130.9 84.1 131.0 84.1Q131.2 84.1 131.4 84.1L131.4 84.1Q132.1 84.2 132.5 84.6Q133.0 84.9 133.2 85.5Q133.4 86.0 133.4 86.7L133.4 86.7Q133.4 87.3 133.2 87.8Q132.9 88.4 132.5 88.7Q132.1 89.1 131.4 89.2L131.4 89.2Q131.2 89.2 131.0 89.2Q130.8 89.2 130.7 89.2L130.7 89.2L128.8 89.2L128.8 92ZM128.8 85.3L128.8 88.0L130.7 88.0Q130.8 88.0 130.9 88.0Q131.1 88.0 131.2 87.9L131.2 87.9Q131.5 87.9 131.7 87.6Q131.9 87.4 132.0 87.2Q132.1 86.9 132.1 86.7L132.1 86.7Q132.1 86.4 132.0 86.1Q131.9 85.9 131.7 85.7Q131.5 85.5 131.2 85.4L131.2 85.4Q131.1 85.3 130.9 85.3Q130.8 85.3 130.7 85.3L130.7 85.3L128.8 85.3ZM139.3 92.2L139.3 92.2Q138.2 92.2 137.3 91.6Q136.5 91.1 136.0 90.2Q135.5 89.3 135.5 88.0L135.5 88.0Q135.5 86.8 136.0 85.9Q136.5 85.0 137.3 84.4Q138.2 83.9 139.3 83.9L139.3 83.9Q140.5 83.9 141.4 84.4Q142.2 85.0 142.7 85.9Q143.1 86.8 143.1 88.0L143.1 88.0Q143.1 89.3 142.7 90.2Q142.2 91.1 141.4 91.6Q140.5 92.2 139.3 92.2ZM139.3 90.9L139.3 90.9Q140.1 90.9 140.7 90.6Q141.2 90.2 141.5 89.6Q141.7 88.9 141.7 88.0L141.7 88.0Q141.7 87.2 141.5 86.5Q141.2 85.9 140.7 85.5Q140.1 85.2 139.3 85.2L139.3 85.2Q138.5 85.2 138.0 85.5Q137.5 85.9 137.2 86.5Q137.0 87.2 137.0 88.0L137.0 88.0Q137.0 88.9 137.2 89.5Q137.5 90.2 138.0 90.5Q138.5 90.9 139.3 90.9ZM148.7 92.2L148.7 92.2Q147.8 92.2 147.1 91.9Q146.4 91.6 146.0 91.0Q145.5 90.4 145.4 89.7L145.4 89.7L146.8 89.4Q146.9 90.2 147.5 90.5Q148.0 90.9 148.7 90.9L148.7 90.9Q149.2 90.9 149.5 90.8Q149.9 90.7 150.2 90.4Q150.4 90.2 150.4 89.8L150.4 89.8Q150.4 89.6 150.3 89.5Q150.3 89.3 150.2 89.2Q150.1 89.1 149.9 89.0Q149.7 88.9 149.5 88.9L149.5 88.9L147.5 88.3Q147.2 88.2 146.9 88.1Q146.6 87.9 146.3 87.7Q146.0 87.5 145.9 87.1Q145.7 86.8 145.7 86.2L145.7 86.2Q145.7 85.5 146.1 85.0Q146.5 84.4 147.1 84.2Q147.8 83.9 148.6 83.9L148.6 83.9Q149.4 83.9 150.0 84.2Q150.7 84.5 151.1 85.0Q151.5 85.5 151.7 86.2L151.7 86.2L150.3 86.5Q150.2 86.1 149.9 85.8Q149.7 85.5 149.3 85.3Q149.0 85.2 148.6 85.2L148.6 85.2Q148.2 85.2 147.8 85.3Q147.5 85.4 147.3 85.6Q147.1 85.9 147.1 86.2L147.1 86.2Q147.1 86.5 147.3 86.7Q147.4 86.8 147.7 86.9Q148.0 87.0 148.2 87.1L148.2 87.1L149.6 87.5Q149.9 87.6 150.3 87.7Q150.7 87.9 151.0 88.1Q151.3 88.3 151.6 88.7Q151.8 89.1 151.8 89.7L151.8 89.7Q151.8 90.3 151.5 90.8Q151.3 91.2 150.8 91.5Q150.4 91.9 149.8 92.0Q149.3 92.2 148.7 92.2Z "/></g><defs><clipPath id="satori_bc-id-2" clip-path="url(#satori_cp-id)"><rect x="264" y="29" width="264" height="82"/></clipPath></defs><mask id="satori_om-id-2"><rect x="264" y="29" width="263" height="82" fill="#fff" mask="url(#satori_om-id)"/><path width="264" height="82" fill="none" stroke="#000" stroke-width="2" d="M528,29 A0,0 0 0 1 528,29 v82 A0,0 0 0 1 528,111"/></mask><path width="264" height="82" clip-path="url(#satori_bc-id-2)" fill="none" stroke="rgba(255,255,255,0.06)" stroke-width="2" d="M528,29 A0,0 0 0 1 528,29 v82 A0,0 0 0 1 528,111"/><mask id="satori_om-id-2-0"><rect x="386" y="45" width="18" height="30" fill="#fff" mask="url(#satori_om-id)"/></mask><g mask="url(#satori_om-id)" clip-path="url(#satori_cp-id)"><path fill="#60a5fa" d="M394.5 71.5L394.5 71.5Q392.9 71.5 391.4 70.8Q390.0 70.1 389.0 68.9Q387.9 67.7 387.5 66.1L387.5 66.1L391.0 65.2Q391.2 66.0 391.8 66.7Q392.3 67.3 393.1 67.6Q393.8 68.0 394.6 68.0L394.6 68.0Q395.7 68.0 396.6 67.5Q397.4 67.0 397.9 66.1Q398.4 65.2 398.4 64.2L398.4 64.2Q398.4 63.1 397.9 62.3Q397.4 61.4 396.5 60.9Q395.7 60.4 394.6 60.4L394.6 60.4Q393.4 60.4 392.6 60.9Q391.8 61.3 391.3 61.8L391.3 61.8L388.2 60.8L388.9 49.4L400.6 49.4L400.6 52.8L390.8 52.8L392.2 51.5L391.7 59.5L391.0 58.7Q391.9 57.9 393.0 57.5Q394.1 57.1 395.1 57.1L395.1 57.1Q397.2 57.1 398.7 58.1Q400.3 59.0 401.2 60.6Q402.1 62.2 402.1 64.2L402.1 64.2Q402.1 66.2 401.0 67.9Q400.0 69.5 398.3 70.5Q396.5 71.5 394.5 71.5Z "/></g><mask id="satori_om-id-2-1"><rect x="373" y="80" width="44" height="15" fill="#fff" mask="url(#satori_om-id)"/></mask><g mask="url(#satori_om-id)" clip-path="url(#satori_cp-id)"><path fill="rgba(200,195,225,0.45)" d="M376.7 92.2L376.7 92.2Q375.8 92.2 375.1 91.9Q374.4 91.6 374.0 91.0Q373.5 90.4 373.4 89.7L373.4 89.7L374.8 89.4Q375.0 90.2 375.5 90.5Q376.1 90.9 376.8 90.9L376.8 90.9Q377.2 90.9 377.6 90.8Q378.0 90.7 378.2 90.4Q378.4 90.2 378.4 89.8L378.4 89.8Q378.4 89.6 378.4 89.5Q378.3 89.3 378.2 89.2Q378.1 89.1 377.9 89.0Q377.8 88.9 377.5 88.9L377.5 88.9L375.5 88.3Q375.2 88.2 374.9 88.1Q374.6 87.9 374.4 87.7Q374.1 87.5 373.9 87.1Q373.7 86.8 373.7 86.2L373.7 86.2Q373.7 85.5 374.1 85.0Q374.5 84.4 375.2 84.2Q375.8 83.9 376.6 83.9L376.6 83.9Q377.4 83.9 378.1 84.2Q378.7 84.5 379.1 85.0Q379.6 85.5 379.7 86.2L379.7 86.2L378.3 86.5Q378.2 86.1 378.0 85.8Q377.7 85.5 377.4 85.3Q377.0 85.2 376.6 85.2L376.6 85.2Q376.2 85.2 375.9 85.3Q375.5 85.4 375.3 85.6Q375.1 85.9 375.1 86.2L375.1 86.2Q375.1 86.5 375.3 86.7Q375.5 86.8 375.7 86.9Q376.0 87.0 376.3 87.1L376.3 87.1L377.7 87.5Q378.0 87.6 378.3 87.7Q378.7 87.9 379.0 88.1Q379.4 88.3 379.6 88.7Q379.8 89.1 379.8 89.7L379.8 89.7Q379.8 90.3 379.6 90.8Q379.3 91.2 378.9 91.5Q378.4 91.9 377.9 92.0Q377.3 92.2 376.7 92.2ZM385.7 92L384.4 92L384.4 85.3L381.8 85.3L381.8 84.1L388.3 84.1L388.3 85.3L385.7 85.3L385.7 92ZM391.3 92L389.9 92L392.4 84.1L394.3 84.1L396.8 92L395.5 92L393.2 84.9L393.5 84.9L391.3 92ZM395.5 90.3L391.3 90.3L391.3 89.0L395.5 89.0L395.5 90.3ZM400.7 92L399.3 92L399.3 84.1L402.6 84.1Q402.7 84.1 402.9 84.1Q403.1 84.1 403.2 84.1L403.2 84.1Q403.9 84.2 404.4 84.6Q404.8 84.9 405.0 85.5Q405.3 86.0 405.3 86.7L405.3 86.7Q405.3 87.6 404.8 88.3Q404.3 89.0 403.3 89.2L403.3 89.2L402.7 89.2L400.7 89.2L400.7 92ZM405.4 92L403.9 92L402.3 88.8L403.7 88.5L405.4 92ZM400.7 85.3L400.7 88.0L402.5 88.0Q402.7 88.0 402.8 88.0Q402.9 88.0 403.0 87.9L403.0 87.9Q403.4 87.9 403.6 87.6Q403.8 87.4 403.8 87.2Q403.9 86.9 403.9 86.7L403.9 86.7Q403.9 86.4 403.8 86.1Q403.8 85.9 403.6 85.7Q403.4 85.5 403.0 85.4L403.0 85.4Q402.9 85.3 402.8 85.3Q402.7 85.3 402.5 85.3L402.5 85.3L400.7 85.3ZM411.0 92.2L411.0 92.2Q410.2 92.2 409.5 91.9Q408.8 91.6 408.3 91.0Q407.9 90.4 407.7 89.7L407.7 89.7L409.1 89.4Q409.3 90.2 409.8 90.5Q410.4 90.9 411.1 90.9L411.1 90.9Q411.5 90.9 411.9 90.8Q412.3 90.7 412.5 90.4Q412.7 90.2 412.7 89.8L412.7 89.8Q412.7 89.6 412.7 89.5Q412.6 89.3 412.5 89.2Q412.4 89.1 412.3 89.0Q412.1 88.9 411.9 88.9L411.9 88.9L409.8 88.3Q409.6 88.2 409.2 88.1Q408.9 87.9 408.7 87.7Q408.4 87.5 408.2 87.1Q408.1 86.8 408.1 86.2L408.1 86.2Q408.1 85.5 408.4 85.0Q408.8 84.4 409.5 84.2Q410.1 83.9 410.9 83.9L410.9 83.9Q411.8 83.9 412.4 84.2Q413.0 84.5 413.5 85.0Q413.9 85.5 414.1 86.2L414.1 86.2L412.6 86.5Q412.6 86.1 412.3 85.8Q412.1 85.5 411.7 85.3Q411.3 85.2 410.9 85.2L410.9 85.2Q410.5 85.2 410.2 85.3Q409.9 85.4 409.6 85.6Q409.4 85.9 409.4 86.2L409.4 86.2Q409.4 86.5 409.6 86.7Q409.8 86.8 410.1 86.9Q410.3 87.0 410.6 87.1L410.6 87.1L412.0 87.5Q412.3 87.6 412.7 87.7Q413.0 87.9 413.4 88.1Q413.7 88.3 413.9 88.7Q414.1 89.1 414.1 89.7L414.1 89.7Q414.1 90.3 413.9 90.8Q413.6 91.2 413.2 91.5Q412.7 91.9 412.2 92.0Q411.6 92.2 411.0 92.2Z "/></g><mask id="satori_om-id-3"><rect x="528" y="29" width="331" height="82" fill="#fff" mask="url(#satori_om-id)"/></mask><mask id="satori_om-id-3-0"><rect x="675" y="45" width="37" height="30" fill="#fff" mask="url(#satori_om-id)"/></mask><g mask="url(#satori_om-id)" clip-path="url(#satori_cp-id)"><path fill="#f59e0b" d="M684.1 49.0L684.1 49.0Q686.2 49.0 687.9 50.0Q689.6 51.0 690.6 52.7Q691.5 54.5 691.5 56.8L691.5 56.8L691.5 63.4Q691.5 65.8 690.6 67.6Q689.6 69.5 687.8 70.5Q686.0 71.5 683.7 71.5L683.7 71.5Q682.0 71.5 680.6 70.9Q679.1 70.3 678.0 69.2L678.0 69.2L680.6 66.6Q681.1 67.3 682.0 67.7Q682.8 68.1 683.7 68.1L683.7 68.1Q684.9 68.1 685.9 67.5Q686.8 66.9 687.3 65.9Q687.9 65.0 687.9 63.9L687.9 63.9L687.9 60.3L688.5 61.0Q687.6 62.1 686.3 62.7Q685.0 63.3 683.5 63.3L683.5 63.3Q681.5 63.3 680.0 62.4Q678.4 61.4 677.5 59.8Q676.6 58.3 676.6 56.2L676.6 56.2Q676.6 54.2 677.6 52.6Q678.6 50.9 680.3 49.9Q682.0 49.0 684.1 49.0ZM684.1 52.4L684.1 52.4Q683.0 52.4 682.2 52.9Q681.3 53.5 680.8 54.3Q680.3 55.2 680.3 56.2L680.3 56.2Q680.3 57.3 680.8 58.1Q681.3 59.0 682.1 59.5Q683.0 60.0 684.0 60.0L684.0 60.0Q685.1 60.0 686.0 59.5Q686.8 59.0 687.4 58.1Q687.9 57.3 687.9 56.2L687.9 56.2Q687.9 55.2 687.4 54.3Q686.9 53.5 686.0 53.0Q685.1 52.4 684.1 52.4ZM702.1 71.5L702.1 71.5Q700.5 71.5 699.1 70.8Q697.6 70.1 696.6 68.9Q695.6 67.7 695.1 66.1L695.1 66.1L698.6 65.2Q698.8 66.0 699.4 66.7Q700.0 67.3 700.7 67.6Q701.5 68.0 702.3 68.0L702.3 68.0Q703.3 68.0 704.2 67.5Q705.1 67.0 705.6 66.1Q706.1 65.2 706.1 64.2L706.1 64.2Q706.1 63.1 705.6 62.3Q705.1 61.4 704.2 60.9Q703.3 60.4 702.3 60.4L702.3 60.4Q701.0 60.4 700.2 60.9Q699.4 61.3 699.0 61.8L699.0 61.8L695.9 60.8L696.5 49.4L708.3 49.4L708.3 52.8L698.5 52.8L699.8 51.5L699.3 59.5L698.7 58.7Q699.5 57.9 700.6 57.5Q701.7 57.1 702.8 57.1L702.8 57.1Q704.8 57.1 706.4 58.1Q707.9 59.0 708.8 60.6Q709.7 62.2 709.7 64.2L709.7 64.2Q709.7 66.2 708.7 67.9Q707.6 69.5 705.9 70.5Q704.2 71.5 702.1 71.5Z "/></g><mask id="satori_om-id-3-1"><rect x="637" y="80" width="113" height="15" fill="#fff" mask="url(#satori_om-id)"/></mask><g mask="url(#satori_om-id)" clip-path="url(#satori_cp-id)"><path fill="rgba(200,195,225,0.45)" d="M641.1 92.2L641.1 92.2Q639.9 92.2 639.1 91.6Q638.2 91.1 637.8 90.2Q637.3 89.3 637.3 88.0L637.3 88.0Q637.3 86.8 637.8 85.9Q638.2 85.0 639.1 84.4Q639.9 83.9 641.1 83.9L641.1 83.9Q642.5 83.9 643.4 84.6Q644.3 85.3 644.7 86.4L644.7 86.4L643.3 86.8Q643.1 86.0 642.6 85.6Q642.0 85.2 641.1 85.2L641.1 85.2Q640.3 85.2 639.8 85.5Q639.3 85.9 639.0 86.5Q638.7 87.2 638.7 88.0L638.7 88.0Q638.7 88.9 639.0 89.6Q639.3 90.2 639.8 90.6Q640.3 90.9 641.1 90.9L641.1 90.9Q642.0 90.9 642.6 90.5Q643.1 90.0 643.3 89.3L643.3 89.3L644.7 89.6Q644.3 90.8 643.4 91.5Q642.5 92.2 641.1 92.2ZM650.7 92.2L650.7 92.2Q649.6 92.2 648.7 91.6Q647.9 91.1 647.4 90.2Q647.0 89.3 647.0 88.0L647.0 88.0Q647.0 86.8 647.4 85.9Q647.9 85.0 648.7 84.4Q649.6 83.9 650.7 83.9L650.7 83.9Q651.9 83.9 652.8 84.4Q653.6 85.0 654.1 85.9Q654.5 86.8 654.5 88.0L654.5 88.0Q654.5 89.3 654.1 90.2Q653.6 91.1 652.8 91.6Q651.9 92.2 650.7 92.2ZM650.7 90.9L650.7 90.9Q651.5 90.9 652.1 90.6Q652.6 90.2 652.9 89.6Q653.1 88.9 653.1 88.0L653.1 88.0Q653.1 87.2 652.9 86.5Q652.6 85.9 652.1 85.5Q651.5 85.2 650.7 85.2L650.7 85.2Q649.9 85.2 649.4 85.5Q648.9 85.9 648.6 86.5Q648.4 87.2 648.4 88.0L648.4 88.0Q648.4 88.9 648.6 89.5Q648.9 90.2 649.4 90.5Q649.9 90.9 650.7 90.9ZM658.4 92L657.1 92L657.1 84.1L658.3 84.1L661.1 89.7L663.8 84.1L665.0 84.1L665.0 92L663.8 92L663.8 86.9L661.3 92L660.8 92L658.4 86.9L658.4 92ZM669.3 92L668.0 92L668.0 84.1L669.2 84.1L672.0 89.7L674.7 84.1L675.9 84.1L675.9 92L674.7 92L674.7 86.9L672.2 92L671.7 92L669.3 86.9L669.3 92ZM680.4 92L679.1 92L679.1 84.1L680.4 84.1L680.4 92ZM686.8 92L685.4 92L685.4 85.3L682.9 85.3L682.9 84.1L689.3 84.1L689.3 85.3L686.8 85.3L686.8 92ZM694.6 92.2L694.6 92.2Q693.8 92.2 693.1 91.9Q692.4 91.6 691.9 91.0Q691.5 90.4 691.4 89.7L691.4 89.7L692.7 89.4Q692.9 90.2 693.5 90.5Q694.0 90.9 694.7 90.9L694.7 90.9Q695.1 90.9 695.5 90.8Q695.9 90.7 696.1 90.4Q696.4 90.2 696.4 89.8L696.4 89.8Q696.4 89.6 696.3 89.5Q696.2 89.3 696.1 89.2Q696.0 89.1 695.9 89.0Q695.7 88.9 695.5 88.9L695.5 88.9L693.4 88.3Q693.2 88.2 692.9 88.1Q692.6 87.9 692.3 87.7Q692.0 87.5 691.8 87.1Q691.7 86.8 691.7 86.2L691.7 86.2Q691.7 85.5 692.1 85.0Q692.4 84.4 693.1 84.2Q693.8 83.9 694.6 83.9L694.6 83.9Q695.4 83.9 696.0 84.2Q696.6 84.5 697.1 85.0Q697.5 85.5 697.7 86.2L697.7 86.2L696.3 86.5Q696.2 86.1 695.9 85.8Q695.7 85.5 695.3 85.3Q695.0 85.2 694.5 85.2L694.5 85.2Q694.1 85.2 693.8 85.3Q693.5 85.4 693.3 85.6Q693.1 85.9 693.1 86.2L693.1 86.2Q693.1 86.5 693.2 86.7Q693.4 86.8 693.7 86.9Q693.9 87.0 694.2 87.1L694.2 87.1L695.6 87.5Q695.9 87.6 696.3 87.7Q696.6 87.9 697.0 88.1Q697.3 88.3 697.5 88.7Q697.7 89.1 697.7 89.7L697.7 89.7Q697.7 90.3 697.5 90.8Q697.2 91.2 696.8 91.5Q696.4 91.9 695.8 92.0Q695.2 92.2 694.6 92.2Z M707.9 93.4L706.9 94.1Q706.3 93.3 705.8 92.4Q705.4 91.5 705.1 90.4Q704.9 89.4 704.9 88.4L704.9 88.4Q704.9 87.3 705.1 86.3Q705.4 85.3 705.8 84.3Q706.3 83.4 706.9 82.6L706.9 82.6L707.9 83.4Q707.2 84.2 706.8 85.0Q706.5 85.8 706.3 86.6Q706.1 87.5 706.1 88.4L706.1 88.4Q706.1 89.3 706.3 90.1Q706.5 90.9 706.8 91.8Q707.2 92.6 707.9 93.4L707.9 93.4ZM715.9 92.0L710.4 92.0L710.4 90.8L713.8 87.8Q714.2 87.5 714.3 87.1Q714.5 86.8 714.5 86.5L714.5 86.5Q714.5 86.1 714.3 85.8Q714.2 85.5 713.9 85.3Q713.6 85.2 713.2 85.2L713.2 85.2Q712.7 85.2 712.4 85.4Q712.1 85.5 711.9 85.9Q711.8 86.2 711.8 86.5L711.8 86.5L710.4 86.5Q710.4 85.7 710.8 85.2Q711.1 84.6 711.7 84.2Q712.4 83.9 713.2 83.9L713.2 83.9Q713.9 83.9 714.6 84.3Q715.2 84.6 715.5 85.2Q715.9 85.8 715.9 86.6L715.9 86.6Q715.9 87.1 715.7 87.5Q715.5 87.9 715.2 88.2Q714.9 88.5 714.5 88.9L714.5 88.9L712.1 91.1L712.0 90.7L715.9 90.7L715.9 92.0ZM721.5 92.2L721.5 92.2Q720.7 92.2 720.0 91.8Q719.4 91.4 719.0 90.8Q718.7 90.2 718.7 89.3L718.7 89.3L718.7 86.8Q718.7 85.9 719.0 85.3Q719.4 84.6 720.0 84.3Q720.7 83.9 721.5 83.9L721.5 83.9Q722.4 83.9 723.0 84.3Q723.6 84.6 724.0 85.3Q724.4 85.9 724.4 86.8L724.4 86.8L724.4 89.3Q724.4 90.2 724.0 90.8Q723.6 91.4 723.0 91.8Q722.4 92.2 721.5 92.2ZM721.5 90.9L721.5 90.9Q721.9 90.9 722.3 90.7Q722.6 90.5 722.8 90.2Q723.0 89.8 723.0 89.4L723.0 89.4L723.0 86.7Q723.0 86.2 722.8 85.9Q722.6 85.6 722.3 85.4Q721.9 85.2 721.5 85.2L721.5 85.2Q721.1 85.2 720.8 85.4Q720.4 85.6 720.2 85.9Q720.0 86.2 720.0 86.7L720.0 86.7L720.0 89.4Q720.0 89.8 720.2 90.2Q720.4 90.5 720.8 90.7Q721.1 90.9 721.5 90.9ZM732.6 92.0L727.2 92.0L727.2 90.8L730.6 87.8Q731.0 87.5 731.1 87.1Q731.3 86.8 731.3 86.5L731.3 86.5Q731.3 86.1 731.1 85.8Q730.9 85.5 730.6 85.3Q730.3 85.2 730.0 85.2L730.0 85.2Q729.5 85.2 729.2 85.4Q728.9 85.5 728.7 85.9Q728.6 86.2 728.6 86.5L728.6 86.5L727.2 86.5Q727.2 85.7 727.6 85.2Q727.9 84.6 728.5 84.2Q729.2 83.9 730.0 83.9L730.0 83.9Q730.7 83.9 731.3 84.3Q731.9 84.6 732.3 85.2Q732.6 85.8 732.6 86.6L732.6 86.6Q732.6 87.1 732.5 87.5Q732.3 87.9 732.0 88.2Q731.7 88.5 731.3 88.9L731.3 88.9L728.9 91.1L728.7 90.7L732.6 90.7L732.6 92.0ZM738.2 92.2L738.2 92.2Q737.4 92.2 736.8 91.8Q736.2 91.4 735.8 90.8Q735.5 90.1 735.5 89.3L735.5 89.3L735.5 86.9Q735.5 86.0 735.8 85.3Q736.2 84.7 736.8 84.3Q737.5 83.9 738.3 83.9L738.3 83.9Q738.9 83.9 739.5 84.1Q740.0 84.3 740.4 84.8L740.4 84.8L739.5 85.7Q739.3 85.4 739.0 85.3Q738.7 85.2 738.3 85.2L738.3 85.2Q737.9 85.2 737.5 85.4Q737.2 85.6 737.0 86.0Q736.8 86.3 736.8 86.7L736.8 86.7L736.8 88.0L736.6 87.8Q736.9 87.4 737.4 87.1Q737.9 86.9 738.4 86.9L738.4 86.9Q739.1 86.9 739.7 87.3Q740.3 87.6 740.6 88.2Q740.9 88.8 740.9 89.5L740.9 89.5Q740.9 90.3 740.6 90.9Q740.2 91.5 739.6 91.8Q738.9 92.2 738.2 92.2ZM738.2 90.9L738.2 90.9Q738.6 90.9 738.9 90.7Q739.2 90.5 739.4 90.2Q739.6 89.9 739.6 89.5L739.6 89.5Q739.6 89.1 739.4 88.8Q739.2 88.5 738.9 88.3Q738.6 88.1 738.2 88.1L738.2 88.1Q737.8 88.1 737.5 88.3Q737.2 88.5 737.0 88.8Q736.8 89.1 736.8 89.5L736.8 89.5Q736.8 89.9 737.0 90.2Q737.2 90.5 737.5 90.7Q737.8 90.9 738.2 90.9ZM744.5 94.1L744.5 94.1L743.5 93.4Q744.1 92.6 744.5 91.8Q744.9 90.9 745.1 90.1Q745.3 89.3 745.3 88.4L745.3 88.4Q745.3 87.5 745.1 86.6Q744.9 85.8 744.5 85.0Q744.1 84.2 743.5 83.4L743.5 83.4L744.5 82.6Q745.1 83.4 745.6 84.3Q746.0 85.3 746.2 86.3Q746.5 87.3 746.5 88.4L746.5 88.4Q746.5 89.4 746.2 90.4Q746.0 91.5 745.6 92.4Q745.1 93.3 744.5 94.1Z "/></g></svg>